<?xml version="1.0" encoding="UTF-8"?>
<svg version="1.1" xmlns="http://www.w3.org/2000/svg" width="512" height="512">
<path d="M0 0 C38.61 0 77.22 0 117 0 C117.04898438 18.40394531 117.09796875 36.80789062 117.1484375 55.76953125 C117.18383005 67.44075969 117.21970216 79.11198371 117.2578125 90.78320312 C117.27781747 96.91739861 117.29770142 103.05159448 117.31738281 109.18579102 C117.31985425 109.95450502 117.32232569 110.72321901 117.32487202 111.51522738 C117.3644815 123.89010394 117.39727203 136.26498951 117.42749982 148.63989214 C117.45872563 161.36056032 117.49738163 174.08119064 117.54279006 186.80181617 C117.57053025 194.63727832 117.59262516 202.47271311 117.60726251 210.30821087 C117.61915213 216.33864248 117.64143005 222.36899238 117.66738319 228.39938164 C117.67638288 230.85699091 117.68213119 233.31461481 117.68421364 235.77223969 C117.72788801 279.52225077 126.24846718 316.35356639 157 349 C157.6496875 349.72574219 158.299375 350.45148438 158.96875 351.19921875 C181.6650623 375.51046096 216.30012478 388.48786704 249 390 C249.76828125 390.04125 250.5365625 390.0825 251.328125 390.125 C288.19597064 391.12820668 322.51944168 375.94354416 349 351 C349.72574219 350.3503125 350.45148438 349.700625 351.19921875 349.03125 C375.88481089 325.98545482 388.54476069 291.14712379 390 258 C390.20934822 249.61585715 390.18522104 241.22679099 390.20532227 232.84057617 C390.21491362 230.29681748 390.22492442 227.75306034 390.23532104 225.20930481 C390.256679 219.75452896 390.27514898 214.2997558 390.29092598 208.84496117 C390.31374131 200.95846801 390.34186721 193.07200063 390.37124526 185.18552951 C390.41877921 172.38696276 390.46208134 159.58838539 390.50268555 146.78979492 C390.54211307 134.36498184 390.5835673 121.9401782 390.62768555 109.51538086 C390.63180981 108.35283314 390.63180981 108.35283314 390.63601738 107.1667996 C390.65753942 101.10458612 390.67917815 95.04237305 390.70085371 88.98016012 C390.80687392 59.32012587 390.90272674 29.66006671 391 0 C429.61 0 468.22 0 508 0 C508.08844747 34.81156377 508.16220102 69.62301705 508.20426132 104.43465964 C508.20926319 108.5594673 508.21444057 112.68427473 508.21972656 116.80908203 C508.2207758 117.63013763 508.22182505 118.45119323 508.22290608 119.2971293 C508.24023538 132.53139689 508.27173103 145.76559383 508.30861118 158.99981973 C508.34623014 172.61433992 508.36827972 186.22882354 508.37635398 199.84339356 C508.38179872 208.22094152 508.3988916 216.5982897 508.43166587 224.97577605 C508.45307367 230.74753662 508.4591419 236.51919636 508.45400551 242.2909936 C508.45148365 245.60396059 508.45719804 248.916309 508.4768219 252.22925758 C508.83990572 316.77700132 485.85398274 379.03918269 441.49609375 426.31640625 C439.36940178 428.60284973 437.32927439 430.92987084 435.3125 433.3125 C432.54842951 436.48534148 429.61126069 439.25837459 426.3984375 441.97265625 C424.56681173 443.52088716 422.76707051 445.08900928 420.9765625 446.68359375 C379.14507477 483.67988608 322.29983774 507.73606637 266.12890625 508.23828125 C265.21697006 508.24802979 264.30503387 508.25777832 263.36546326 508.26782227 C243.21817598 508.43889634 223.79329397 508.1911189 204 504 C203.07477539 503.81276367 202.14955078 503.62552734 201.19628906 503.43261719 C156.53865271 494.25378458 114.91011341 472.67089971 81.68359375 441.49609375 C79.39715027 439.36940178 77.07012916 437.32927439 74.6875 435.3125 C71.51465852 432.54842951 68.74162541 429.61126069 66.02734375 426.3984375 C64.47911284 424.56681173 62.91099072 422.76707051 61.31640625 420.9765625 C18.87510263 372.9823225 -0.82998759 311.85155419 -0.45410156 248.39355469 C-0.4507191 245.66039091 -0.45343931 242.92724051 -0.45587158 240.19407654 C-0.45794191 234.37607055 -0.44568115 228.55824771 -0.42292023 222.74028778 C-0.39003613 214.32912821 -0.37995662 205.91805474 -0.37496826 197.50683787 C-0.36627173 183.85135118 -0.33981175 170.19596153 -0.30175781 156.54052734 C-0.26488995 143.29671708 -0.23665112 130.05293343 -0.21972656 116.80908203 C-0.21867567 115.98904051 -0.21762477 115.168999 -0.21654204 114.32410774 C-0.21132087 110.20909793 -0.20626628 106.09408793 -0.20129442 101.97907782 C-0.16000863 67.9859658 -0.08636779 33.99303479 0 0 Z " fill="#DADEDF" transform="translate(2,2)"/>
<path d="M0 0 C38.61 0 77.22 0 117 0 C117 36.3 117 72.6 117 110 C78.39 110 39.78 110 0 110 C0 73.7 0 37.4 0 0 Z " fill="#5AC8AE" transform="translate(393,2)"/>
<path d="M0 0 C38.61 0 77.22 0 117 0 C117 36.3 117 72.6 117 110 C78.39 110 39.78 110 0 110 C0 73.7 0 37.4 0 0 Z " fill="#F0786B" transform="translate(2,2)"/>
<path d="M0 0 C8.25 0 16.5 0 25 0 C25 9.24 25 18.48 25 28 C33.91 28 42.82 28 52 28 C52 35.92 52 43.84 52 52 C42.76 52 33.52 52 24 52 C24 61.24 24 70.48 24 80 C16.08 80 8.16 80 0 80 C0 70.76 0 61.52 0 52 C-8.91 52 -17.82 52 -27 52 C-27 44.08 -27 36.16 -27 28 C-18.09 28 -9.18 28 0 28 C0 18.76 0 9.52 0 0 Z " fill="#EFF0F2" transform="translate(48,17)"/>
<path d="M0 0 C26.07 0 52.14 0 79 0 C79 7.92 79 15.84 79 24 C52.93 24 26.86 24 0 24 C0 16.08 0 8.16 0 0 Z " fill="#EDF2F4" transform="translate(412,45)"/>
</svg>
